<?xml version="1.0" encoding="UTF-8"?>
<svg width="112px" height="112px" viewBox="0 0 112 112" version="1.1" xmlns="http://www.w3.org/2000/svg" xmlns:xlink="http://www.w3.org/1999/xlink">
    <title>icon</title>
    <g id="Page-1" stroke="none" stroke-width="1" fill="none" fill-rule="evenodd">
        <g id="Loading頁面" transform="translate(-645.000000, -411.000000)">
            <g id="loading" transform="translate(58.000000, 411.000000)">
                <g id="icon" transform="translate(587.000000, 0.000000)">
                    <path d="M62.179083,18.4874697 C62.179083,22.8959448 62.2081023,27.3038023 62.1704389,31.7116599 C62.1383324,35.4249048 60.0736348,37.3889607 56.0603172,37.298198 C52.9194331,37.2278106 49.718658,35.9738032 49.8427621,31.8234154 C50.1064062,23.0151094 50.0996145,14.1882804 49.8446144,5.37935705 C49.7279195,1.33084575 52.5020481,0.128702774 56.0782228,0.0064509455 C60.006952,-0.126914685 62.1309232,1.81367873 62.1673517,5.26327956 C62.2142767,9.67051971 62.179083,14.0789947 62.179083,18.4874697" id="Fill-3" fill="#FFA500"></path>
                    <path d="M40.0217418,44.6162665 C37.5760878,45.6998623 35.8077583,44.5131551 34.0894409,42.7596441 C28.1361474,36.6840987 22.0754204,30.7141344 16.0745844,24.6855139 C13.3868965,21.9854774 13.4900079,19.4286853 16.3376111,16.4884671 C19.2833862,13.4476073 21.9933017,13.2796653 24.7519945,16.0278617 C30.9232421,22.1762643 37.0710272,28.3481293 43.2330133,34.5051759 C44.2585703,35.5301155 45.3143815,36.5272706 45.1649626,37.405261 C44.6827471,41.349426 42.799575,43.3844868 40.0217418,44.6162665 Z" id="Fill-1" fill="#FFB225"></path>
                    <path d="M49.9198178,93.1336334 C49.9198178,88.6226644 49.890181,84.1116954 49.9303142,79.6007264 C49.9587161,76.3622879 52.1104718,74.5630867 55.8718765,74.523571 C59.4628696,74.4859075 62.1771072,76.4302055 62.2030394,79.3753632 C62.2845406,88.6016717 62.2900975,97.8292149 62.1980999,107.055523 C62.1678457,110.105027 59.4511384,112.09872 55.9434988,111.996226 C51.8783168,111.877061 49.9519244,110.200112 49.927227,106.66654 C49.8957379,102.155571 49.9198178,97.6446023 49.9198178,93.1336334" id="Fill-6" fill="#FFDC9B"></path>
                    <path d="M37.0259546,58.313349 C36.2566324,61.32025 34.1962569,62.197623 31.257891,62.1630467 C22.7465706,62.0617876 14.2327804,62.1389668 5.72022504,62.1216787 C1.87237962,62.1136521 -0.0743881293,59.9409037 0.00217362171,55.8213875 C0.0781179392,51.7210118 1.84397768,49.8100552 5.63316692,49.8186701 C14.8613276,49.839692 24.0894884,49.8890867 33.3176491,49.9267501 C33.3176491,49.9267501 33.6713055,49.9267501 33.8819833,49.9952852 C36.9345744,51.6469198 38.0076738,54.4747651 37.0259546,58.313349 Z" id="Fill-8" fill="#FFC04D"></path>
                    <path d="M93.4542495,49.8402477 C97.8750732,49.8396303 102.295279,49.8155503 106.715486,49.8476569 C109.856987,49.8711194 111.55246,51.730829 111.663598,55.1668463 C111.811782,59.7426458 110.425643,62.0827186 107.063718,62.1277913 C97.8127124,62.2531303 88.5592369,62.2346073 79.3076137,62.1358179 C76.2803374,62.1037114 74.6324075,59.6234811 74.6373359,55.6972216 C74.6422864,52.1543884 76.4408701,49.9229838 79.5761973,49.8637102 C84.200774,49.7760346 88.8278205,49.8408651 93.4542495,49.8402477" id="Fill-11" fill="#FFEED0"></path>
                    <path d="M14.1173821,90.5321392 C13.9908082,89.2207105 14.8620068,88.3408678 15.742467,87.461025 C22.048315,81.1570293 28.3337878,74.8326582 34.6655681,68.555212 C37.0513311,66.1910592 40.1094791,66.4170399 42.774322,69.023844 C45.6176031,71.8047644 45.8262956,74.7122586 43.2769128,77.2807819 C37.2124812,83.3909036 31.0949503,89.4485434 25.0447197,95.5722486 C23.3720924,97.2652512 21.7840535,98.6495371 19.166753,97.4097306 C16.3648399,96.0828661 14.0457598,93.118568 14.1173821,90.5321392" id="Fill-13" fill="#FFCF77"></path>
                    <path d="M67.2381476,37.9936751 C66.9541282,36.5593771 67.6993704,35.4479969 68.7953149,34.3637837 C75.0789354,28.1437588 81.3045171,21.8650778 87.5727017,15.6283823 C89.6472782,13.5636847 91.8508983,13.4667477 94.08539,15.3536244 C95.1029204,16.2118569 96.0858745,17.1528255 96.902739,18.1981404 C98.4068069,20.1220631 98.6124123,21.9484313 96.6211893,23.8951991 C90.299288,30.0763256 84.0273987,36.3111689 77.8765264,42.6614722 C75.9340807,44.6675135 73.9255696,45.7146807 71.3669253,44.4285668 C68.8792858,43.1776465 67.049213,41.271012 67.2381476,37.9936751" id="Fill-15" fill="#FFF6E6"></path>
                    <path d="M76.8873363,68.3447907 C83.3321069,74.816111 89.8207153,81.2442109 96.2444932,87.7365239 C98.7852319,90.3044297 98.5401108,92.2265001 95.4967812,95.3686191 C92.6010182,98.3582319 90.1677129,98.8342732 87.7893591,96.5084013 C81.3334747,90.1945265 74.978232,83.7775404 68.6205195,77.3642589 C66.8817491,75.6101304 66.2631584,73.5516072 67.6196598,71.2529024 C69.037287,68.8510861 70.8506892,67.0074298 74.1761859,67.0383015 C75.1622271,66.893822 76.0470093,67.5007591 76.8873363,68.3447907 Z" id="Fill-17" fill="#FFE5B6"></path>
                </g>
            </g>
        </g>
    </g>
</svg>